<?xml version="1.0" encoding="UTF-8"?>
<!DOCTYPE svg PUBLIC "-//W3C//DTD SVG 1.1//EN" "http://www.w3.org/Graphics/SVG/1.1/DTD/svg11.dtd">
<!-- Creator: CorelDRAW -->
<svg xmlns="http://www.w3.org/2000/svg" xml:space="preserve" width="1.70666in" height="1.70666in" version="1.1" style="shape-rendering:geometricPrecision; text-rendering:geometricPrecision; image-rendering:optimizeQuality; fill-rule:evenodd; clip-rule:evenodd"
viewBox="0 0 1707 1707"
 xmlns:xlink="http://www.w3.org/1999/xlink">
 <defs>
  <style type="text/css">
   <![CDATA[
    .fil3 {fill:url(#id0)}
    .fil0 {fill:url(#id1)}
    .fil2 {fill:url(#id2)}
    .fil4 {fill:url(#id3)}
    .fil1 {fill:url(#id4)}
    .fil5 {fill:url(#id5)}
   ]]>
  </style>
  <linearGradient id="id0" gradientUnits="userSpaceOnUse" x1="647.772" y1="1185.78" x2="647.772" y2="109.768">
   <stop offset="0" style="stop-opacity:1; stop-color:#AFAFAF"/>
   <stop offset="1" style="stop-opacity:1; stop-color:#9C9C9C"/>
  </linearGradient>
  <linearGradient id="id1" gradientUnits="userSpaceOnUse" x1="1138.83" y1="1294.33" x2="1138.83" y2="983.327">
   <stop offset="0" style="stop-opacity:1; stop-color:#949494"/>
   <stop offset="1" style="stop-opacity:1; stop-color:#858585"/>
  </linearGradient>
  <linearGradient id="id2" gradientUnits="userSpaceOnUse" xlink:href="#id1" x1="647.772" y1="1295.55" x2="647.772" y2="0.00393701">
  </linearGradient>
  <linearGradient id="id3" gradientUnits="userSpaceOnUse" x1="647.772" y1="1143.81" x2="647.772" y2="151.736">
   <stop offset="0" style="stop-opacity:1; stop-color:#D2D2D2"/>
   <stop offset="1" style="stop-opacity:1; stop-color:#BBBBBB"/>
  </linearGradient>
  <linearGradient id="id4" gradientUnits="userSpaceOnUse" x1="1411.49" y1="1116.31" x2="1411.49" y2="1706.66">
   <stop offset="0" style="stop-opacity:1; stop-color:#FF9911"/>
   <stop offset="1" style="stop-opacity:1; stop-color:#FF6600"/>
  </linearGradient>
  <linearGradient id="id5" gradientUnits="userSpaceOnUse" x1="657.22" y1="496.535" x2="657.22" y2="322.63">
   <stop offset="0" style="stop-opacity:1; stop-color:#E6E6E6"/>
   <stop offset="1" style="stop-opacity:1; stop-color:#CCCCCC"/>
  </linearGradient>
 </defs>
 <g id="Layer_x0020_1">
  <metadata id="CorelCorpID_0Corel-Layer"/>
  <path class="fil0" d="M1161 983l133 133 -178 178 -133 -133c36,-21 69,-47 100,-78 31,-31 57,-64 78,-100z"/>
  <path class="fil1" d="M1116 1294l178 -178 376 376c49,49 49,129 0,178l0 0c-49,49 -129,49 -178,0l-376 -376z"/>
  <path class="fil2" d="M190 190c253,-253 663,-253 916,0 253,253 253,663 0,916 -253,253 -663,253 -916,0 -253,-253 -253,-663 0,-916z"/>
  <path class="fil3" d="M267 267c210,-210 551,-210 761,0 210,210 210,551 0,761 -210,210 -551,210 -761,0 -210,-210 -210,-551 0,-761z"/>
  <path class="fil4" d="M297 297c194,-194 508,-194 702,0 193,194 193,508 0,702 -194,193 -508,193 -702,0 -194,-194 -194,-508 0,-702z"/>
  <path class="fil5" d="M440 486c-14,14 -37,14 -52,0 -14,-15 -14,-38 0,-52 75,-74 172,-111 269,-111 97,0 195,37 269,111 14,14 14,38 0,52 -14,14 -37,14 -52,0 -60,-60 -138,-90 -217,-90 -79,0 -157,30 -217,90z"/>
 </g>
</svg>
