<?xml version="1.0" encoding="UTF-8"?>
<!DOCTYPE svg PUBLIC "-//W3C//DTD SVG 1.1//EN" "http://www.w3.org/Graphics/SVG/1.1/DTD/svg11.dtd">
<!-- Creator: CorelDRAW -->
<svg xmlns="http://www.w3.org/2000/svg" xml:space="preserve" width="1.99999in" height="1.99999in" version="1.1" style="shape-rendering:geometricPrecision; text-rendering:geometricPrecision; image-rendering:optimizeQuality; fill-rule:evenodd; clip-rule:evenodd"
viewBox="0 0 2000 2000"
 xmlns:xlink="http://www.w3.org/1999/xlink">
 <defs>
  <style type="text/css">
   <![CDATA[
    .fil0 {fill:none}
    .fil1 {fill:#333333}
    .fil2 {fill:#C06000}
    .fil3 {fill:#CCCCCC}
   ]]>
  </style>
 </defs>
 <rect class="fil0" width="2000" height="2000"/>
 <g id="Layer_x0020_1">
  <metadata id="CorelCorpID_0Corel-Layer"/>
  <path class="fil1" d="M1448 515l-61 0 29 126 108 0c30,0 55,23 63,59l38 168c8,37 -28,69 -63,69l-80 0 28 126 127 0c31,0 55,23 63,59l38 168c9,37 -27,69 -63,69l-98 0 28 126 146 0c31,0 55,22 63,58l38 169c8,37 -27,68 -63,68l-126 0c-8,20 -30,34 -51,34l-81 0c-21,0 -38,-13 -48,-34l-966 0c-10,21 -27,34 -48,34l-81 0c-21,0 -43,-14 -51,-34l-126 0c-36,0 -71,-31 -63,-68l38 -169c8,-36 32,-58 63,-58l146 0 29 -126 -99 0c-36,0 -72,-32 -63,-69l38 -168c8,-36 32,-59 63,-59l127 0 28 -126 -80 0c-35,0 -71,-32 -63,-69l38 -168c8,-36 32,-59 63,-59l109 0 28 -126c-40,0 -87,8 -113,-25 -10,-13 -14,-28 -11,-44 56,-248 29,-226 192,-226 10,-21 27,-34 49,-34l80 0c21,0 43,14 51,34l278 0c8,-20 30,-34 51,-34l81 0c21,0 39,13 48,34 163,0 136,-21 192,226 8,37 -28,69 -63,69zm-971 1239l341 -1516 0 -1c-1,-2 -5,-4 -8,-4l-80 0c-5,0 -8,10 -9,15l-338 1506c-2,7 -5,13 5,13l81 0c4,0 7,-8 8,-13zm108 -269l830 0 -28 -126 -773 0 -29 126zm95 -422l640 0 -28 -126 -584 0 -28 126zm95 -422l450 0 -28 -126 -394 0 -28 126zm-436 1093l46 -202 -136 0 0 0c-12,0 -16,17 -18,22l-37 168c-2,6 12,12 17,12l128 0zm95 -422l45 -202 -116 0 0 0c-12,0 -17,17 -18,22l-38 168c-1,7 13,12 18,12l109 0zm425 -1046l-45 202 373 0 -46 -202 -282 0zm-95 422l-45 202 562 0 -45 -202 -472 0zm-94 422l-46 202 752 0 -45 -202 -661 0zm-95 422l-46 202 942 0 -46 -202 -850 0zm760 -1035l-56 -251c-1,-5 -4,-13 -9,-13l-80 0c-3,0 -6,2 -8,4l341 1517c1,5 5,13 8,13l81 0c3,0 7,-2 8,-4l-285 -1266zm-4 -231l46 202 71 0c5,0 19,-5 17,-11l-37 -169c-2,-5 -6,-22 -18,-22l-79 0zm95 422l45 202 91 0c4,0 19,-5 17,-12l-38 -168c-1,-5 -6,-22 -17,-22l-98 0zm95 422l45 202 109 0c6,0 19,-5 18,-12l-38 -168c-1,-5 -6,-22 -17,-22l-117 0zm95 422l45 202 128 0c6,0 18,-6 18,-12l-38 -168c-1,-5 -6,-22 -18,-22l-135 0zm-1140 -844c-11,0 -16,17 -17,22l-38 168c-2,7 13,12 17,12l91 0 45 -202 -98 0zm114 -422c-12,0 -16,17 -17,22l-38 169c-2,6 12,11 17,11l72 0 45 -202 -79 0z"/>
  <path class="fil2" d="M339 1734l46 -202 -136 0 0 0c-12,0 -16,17 -18,22l-37 168c-2,6 12,12 17,12l128 0z"/>
  <path class="fil3" d="M721 248l-338 1506c-2,7 -5,13 5,13l81 0c4,0 7,-8 8,-13l341 -1516 0 -1c-1,-2 -5,-4 -8,-4l-80 0c-5,0 -8,10 -9,15z"/>
  <polygon class="fil2" points="1425,1532 575,1532 529,1734 1471,1734 "/>
  <path class="fil3" d="M1182 237l341 1517c1,5 5,13 8,13l81 0c3,0 7,-2 8,-4l-285 -1266 -56 -251c-1,-5 -4,-13 -9,-13l-80 0c-3,0 -6,2 -8,4z"/>
  <path class="fil2" d="M1751 1532l-135 0 45 202 128 0c6,0 18,-6 18,-12l-38 -168c-1,-5 -6,-22 -18,-22z"/>
  <path class="fil2" d="M1566 1312l109 0c6,0 19,-5 18,-12l-38 -168c-1,-5 -6,-22 -17,-22l-117 0 45 202z"/>
  <polygon class="fil2" points="1376,1312 1331,1110 670,1110 624,1312 "/>
  <path class="fil2" d="M434 1312l45 -202 -116 0 0 0c-12,0 -17,17 -18,22l-38 168c-1,7 13,12 18,12l109 0z"/>
  <path class="fil2" d="M438 890l91 0 45 -202 -98 0c-11,0 -16,17 -17,22l-38 168c-2,7 13,12 17,12z"/>
  <polygon class="fil2" points="764,688 719,890 1281,890 1236,688 "/>
  <path class="fil2" d="M1426 688l45 202 91 0c4,0 19,-5 17,-12l-38 -168c-1,-5 -6,-22 -17,-22l-98 0z"/>
  <path class="fil2" d="M1377 468l71 0c5,0 19,-5 17,-11l-37 -169c-2,-5 -6,-22 -18,-22l-79 0 46 202z"/>
  <polygon class="fil2" points="1187,468 1141,266 859,266 814,468 "/>
  <path class="fil2" d="M624 468l45 -202 -79 0c-12,0 -16,17 -17,22l-38 169c-2,6 12,11 17,11l72 0z"/>
 </g>
</svg>
